<?xml version="1.0" encoding="UTF-8"?>
<svg width="256px" height="56px" viewBox="0 0 256 56" version="1.1" xmlns="http://www.w3.org/2000/svg" xmlns:xlink="http://www.w3.org/1999/xlink">
    <!-- Generator: Sketch 47.1 (45422) - http://www.bohemiancoding.com/sketch -->
    <title>Group</title>
    <desc>Created with Sketch.</desc>
    <defs></defs>
    <g id="Page-1" stroke="none" stroke-width="1" fill="none" fill-rule="evenodd">
        <g id="Group" fill-rule="nonzero">
            <path d="M28.3170779,42.2008156 C27.9822353,40.4599074 26.3080218,36.5626471 25.9379325,36.4835149 C21.6078874,32.9937853 17.0205425,37.1957046 16.7914394,37.808979 C16.4742201,38.2244231 16.1570007,38.6398671 15.8221579,39.0553111 C14.6590201,40.5390397 14.2889308,42.2799479 14.6061502,44.1989035 C14.9938628,46.5926522 15.5225618,48.9468349 16.5623366,51.1229701 C17.0910355,52.2506038 17.760721,52.5077834 18.7123793,51.8351598 C18.9414821,51.6768954 19.1882083,51.558197 19.4525578,51.6966785 C19.7521539,51.8549429 19.699284,52.1912546 19.6816607,52.4880003 C19.6519468,52.8467003 19.6048819,53.2033214 19.5406743,53.5562849 C19.3239078,54.5197193 18.5008996,54.3673898 18.2365501,54.011295 C17.9782432,53.6134967 17.6251682,53.3056095 17.2179233,53.1230362 C16.495368,52.7867243 15.8221579,53.2991053 15.6811715,54.1497764 C15.6283016,54.5058713 15.7640011,55.257627 15.4344453,55.257627 C14.4440159,55.2754317 13.6950256,53.5107839 14.2713075,52.6066987 C14.71189,52.1319055 15.7005572,52.7768328 15.9278977,51.6768954 C15.9455211,50.6086108 15.0467327,49.4295413 14.7312756,49.1466437 C14.3788096,48.8855074 13.6897386,49.5858272 13.8659716,51.3801497 C13.9012182,51.7164614 13.9717114,52.0923394 13.6721153,52.349519 C12.597094,52.5275664 11.7705612,51.2634297 11.7864221,50.8262244 C11.8022831,50.389019 12.015525,50.4503464 12.2093813,50.3316481 C13.9364648,49.3227127 14.4122939,48.0961637 13.9364648,45.9200286 C13.7602318,45.0891405 13.7073619,44.2384695 13.5311289,43.4075815 C13.3196493,42.4184292 12.9671833,42.2205987 12.2270046,42.734958 C11.5693907,43.1725773 10.8471268,43.4741063 10.0945853,43.625195 C8.40274844,43.961507 6.74615818,44.5945644 4.98382814,44.6143475 C4.40225922,44.6143475 4.08503981,44.9902253 3.87356021,45.5639337 C3.75019711,45.9002454 3.5915874,46.2563403 3.18625149,46.2167742 C2.78091557,46.1772082 2.63992918,45.7617642 2.56943597,45.3661033 C2.32270977,44.1593374 2.79853888,43.4075815 3.85593692,43.4273646 C4.06741652,43.4273646 4.27889612,43.3877985 4.36701262,43.1504018 C4.45512912,42.9130053 4.33176602,42.7745241 4.20840292,42.6162597 C3.85243178,42.1232041 3.3277383,41.8215239 2.76329228,41.7853716 C1.84688065,41.7458055 1.61777775,41.3303615 2.02311366,40.4203414 C2.17769723,39.9864005 2.46516175,39.6286317 2.83378549,39.411406 C3.3272379,39.1542263 3.7149505,39.2135755 3.82069031,39.886199 C3.99692331,41.0336158 4.78997183,41.7458055 5.28342426,42.6558257 C5.53015046,43.1108358 5.91786307,43.2888833 6.42893879,43.209751 C12.2693006,43.2512955 16.1393773,36.9385249 16.6680764,36.2065523 C17.461125,35.1580507 17.5139947,34.4062949 16.9324258,33.219312 C16.4037269,32.1510274 15.6811715,31.2410073 14.9233696,30.3507702 C14.0422046,29.3022686 12.8790668,29.3220517 11.7511755,29.1440042 C11.2577231,29.0648721 10.7642707,29.045089 10.2708183,29.0055229 C8.4238964,28.7760396 6.50824364,31.0352637 6.15577762,31.3320093 C4.86927668,32.420077 4.50623669,33.3736198 3.82069031,35.5141455 C3.6444573,36.0700491 1.98081774,35.3420331 1.93499716,34.1886813 C2.07598356,33.5160579 2.58705928,33.7534544 2.86903207,33.8523696 C3.803067,34.2282476 4.75472524,32.1312445 4.54324562,31.6762344 C4.04979321,30.6079499 2.16410006,30.4101192 1.44154474,31.3399225 C1.37105154,31.4388377 1.3569529,31.7573448 1.03620883,31.8344988 C0.454639914,31.8344988 0.137420506,31.478404 0.0669273037,30.8651295 C-0.239718125,29.622754 0.578003017,28.7879094 1.08907873,29.5594482 C1.31818164,29.9155431 1.63540105,29.8957602 1.97024375,29.875977 C2.88665538,29.8166279 3.75019711,29.875977 4.63136214,30.2914211 C7.62732322,30.8849124 8.12077563,26.7502555 7.73306303,26.0578489 C7.28207658,25.2128516 6.6896038,24.4738732 5.98835627,23.8817137 C5.24817765,23.2684392 4.24364952,23.4860526 3.85593692,24.3169407 C3.71847517,24.7442545 2.41787559,25.1596985 2.09360685,23.7036662 C2.06452887,23.4924041 2.11566754,23.2771325 2.23459327,23.1101748 C2.53418937,22.6353816 2.83202315,22.9578453 3.2038748,23.0508257 C4.35291398,23.3357016 4.57849222,22.3979851 4.36701262,21.942975 C4.13790973,21.4483987 3.78544371,21.3890497 3.3272379,21.487965 C2.78091557,21.6264462 2.23459327,21.6462292 2.23459327,20.736209 C3.13690624,17.8459058 5.86499317,22.2397207 6.81665139,23.3475713 C7.69781642,24.3565067 8.61422804,25.3060931 9.46014647,26.3545946 C10.6232843,27.81854 13.0024299,28.3526824 14.535657,27.3239639 C16.9465244,26.2695274 17.9193307,22.9123444 17.9722007,22.7342969 C18.5890161,20.6768598 17.5668647,19.1931314 16.5094667,17.768752 C15.8574046,16.8982978 15.3110822,15.8102302 14.183191,15.6519659 C12.0331483,15.3354371 9.91835228,14.8210779 7.78593292,14.3462847 C7.0105077,14.1682373 6.02360288,13.9506238 5.33629415,14.2275864 C4.85517804,14.3126535 4.48156408,13.5608977 4.66660872,12.783424 C4.72439529,12.5325979 4.80103786,12.2877286 4.89571164,12.0514512 C5.03669805,11.7547055 5.21293105,11.4579598 5.54777376,11.4381767 C5.93548638,11.4183937 5.98835627,11.7942716 6.11171937,12.0910173 C6.16337172,12.2116321 6.20467905,12.3374924 6.23508248,12.4668952 C6.37606887,12.9021223 6.60517179,13.218651 7.0633776,13.218651 C7.46871351,13.218651 7.69781642,12.9614714 7.83880282,12.5460274 C8.01503582,12.0316682 7.76830961,11.7349225 7.43346691,11.4579598 C7.0986242,11.1809971 6.64041839,10.9040345 6.7990281,10.29076 C6.9752611,9.63791941 7.45109022,9.3016076 8.01503582,9.14334322 C8.33225523,9.06421103 8.66709794,9.06421103 8.89620085,9.40052284 C9.12530376,9.73683465 9.09005716,10.0533634 8.96669406,10.4292413 C8.20889213,12.5855935 8.93144745,13.7923594 11.0286202,13.9110577 C13.0552998,14.029756 14.4475405,12.7636409 14.8000065,10.5083735 C14.9586162,9.47965502 14.8704997,8.49050265 14.0598279,7.83766209 C13.1962862,7.14525541 12.6147173,6.23523523 12.1212648,5.20651677 C11.9546749,4.7784484 11.624111,4.45830556 11.2224765,4.33606268 C10.6409076,4.1777983 10.5527911,3.7227882 10.9052571,3.20842896 C11.2577231,2.69406973 11.5925658,2.19949354 12.1388881,1.98188002 C12.4208609,1.86318173 12.7380804,1.82361564 12.9848066,2.0610122 C13.2315328,2.29840878 13.1786629,2.63472059 13.0905464,2.9710324 C12.7557037,4.15801525 13.4430124,5.83957429 14.4475405,6.35393353 C14.9057463,6.59133009 15.3639521,6.59133009 15.6283016,6.11653694 C16.4618838,4.78909446 16.0671218,3.77620243 15.9807677,3.70300515 C15.4873152,3.20842896 15.0819793,2.53580535 15.5754317,1.92253087 C16.1041308,1.24990726 16.7738162,1.78404954 17.3377618,2.12036136 C17.8664608,2.43689012 17.936954,3.03038154 17.5492414,3.44582554 C16.5623366,4.79700767 15.9243731,7.52706825 15.4873152,12.1503664 C15.2582123,13.1395188 15.6635482,14.029756 16.1217541,14.860644 C17.2672686,16.8785148 18.2189268,19.0744331 20.2103598,20.2811989 C21.8845734,21.3099174 23.6469034,21.962758 25.6030897,21.487965 C26.4137615,21.2901343 27.0129537,20.7757753 27.5416528,20.0438024 C28.6166742,18.5600738 29.7057942,14.9199931 29.6564489,13.6934441 C29.6564489,12.3086308 29.3568528,10.9831666 28.9867635,9.65770245 C28.493311,7.83766209 27.5768993,6.29458437 26.6957343,4.71194058 C26.2551518,3.92061867 25.567843,3.96018478 25.092014,4.63280839 C24.4857725,5.00868629 23.9940823,4.48839214 23.8354727,4.013599 C23.6010827,2.96707578 24.2637188,2.00166307 24.7166377,1.94231393 C25.1695565,1.88296478 25.2805833,2.33797487 25.4215697,2.69406973 C25.5217927,3.06291727 25.8664757,3.27396681 26.196995,3.16886287 C26.5670843,3.08973067 26.5670843,2.71385277 26.6375775,2.39732401 C26.7080707,2.02144611 26.5494609,1.68513431 26.4965911,1.3488225 C26.3797971,0.807158809 26.6631408,0.258165102 27.1398415,0.102490503 C27.7742804,-0.154689115 28.2853561,0.0827074556 28.6730686,0.695981929 C28.9902881,1.17077507 29.0431579,1.64556821 28.6730686,2.1401444 C28.3910958,2.53580535 27.7390337,2.57537144 27.7566571,3.24799505 C27.7742804,4.11844916 27.8976435,4.9691202 28.3029793,5.70109295 C29.0607813,7.04634019 29.5366104,8.53006875 30.0476861,9.99401426 C30.7349949,11.9921021 32.4268317,12.4075461 33.9248123,10.9436005 C34.0152707,10.8683761 34.0980186,10.7821224 34.1715384,10.6864209 C34.8059773,9.65770245 34.2420316,8.86638056 33.7662026,8.05527561 C33.7538662,6.92962021 34.9998336,6.82872667 35.4932859,7.36286895 C35.7752587,7.62004856 35.669519,7.95636037 35.5109093,8.25310608 C35.1760665,8.94551274 36.5189621,9.97423121 37.5552121,8.94551274 C37.8724315,8.62898398 38.1544043,8.82681445 38.313014,9.22247542 C38.458465,9.65253143 38.535994,10.1077661 38.5421169,10.5677226 C38.4328525,11.8338377 37.8724315,12.0514512 37.8724315,12.0514512 C37.3437325,11.9921021 37.1498762,11.556875 36.9736432,11.1018649 C36.6916704,10.3896752 35.3875462,10.0236888 34.9822102,10.9831666 C34.6121209,12.1899325 34.9645869,13.2977832 35.4227927,14.3462847 C35.7223889,15.0386914 36.3568276,15.1573897 36.8150336,14.7419457 C37.6257053,13.9901899 38.2248975,14.3462847 38.5421169,15.4541354 C38.6478568,15.8102302 38.6126101,16.9635819 38.0662878,16.97743 C37.5552121,17.0367792 37.2027461,16.7202504 36.8679033,16.3245895 C36.5192439,15.8957838 35.9641757,15.76797 35.4932859,16.0080607 C35.0527034,16.2256742 35.7576355,16.9477555 35.4580394,17.5313554 C35.0615151,18.3780698 33.977682,18.4215925 33.4489831,17.7291858 C32.9202841,17.0367792 33.149387,16.2058912 33.9248123,15.9487116 C34.8059773,15.7845123 34.5944976,14.1088882 34.4006413,13.3373493 C34.1539151,12.4075461 33.6780859,12.0712343 32.9026608,12.387763 C31.3694336,12.7260531 30.3120356,15.0980405 30.1146546,16.0238872 C29.7927708,17.5966773 29.2324129,19.0956423 28.4580643,20.4552899 C27.6473926,21.8598862 27.4006664,22.9756501 27.4834958,24.59786 C27.4993568,25.0924361 27.9716614,25.8877147 28.0879751,25.9826734 C28.5356069,26.6454054 30.1851478,27.5851001 31.595012,27.5257509 C33.1987323,27.4466188 34.7672059,27.3872697 36.3180565,26.8531273 C37.8160369,26.3387682 39.6312368,23.4900092 39.6312368,23.4900092 C40.3537922,22.6986874 39.4091833,21.5334659 39.8955864,20.8786471 C40.3435793,20.5176922 40.9634637,20.6038125 41.3195491,21.0764775 C41.6720152,21.5908368 41.3195491,22.1408055 40.9177378,22.4375512 C40.7238816,22.5760325 40.3537922,22.8332121 40.635765,23.2090901 C40.864868,23.5058357 41.1644641,23.7234493 41.5521767,23.4860526 C41.697858,23.3907841 41.8512848,23.3112936 42.0103824,23.2486561 C42.240279,23.1659465 42.492075,23.2347002 42.6624445,23.4267036 C43.0149106,23.9727156 42.4703506,24.8115168 42.1161223,25.0489135 C41.5697999,25.2665269 41.1468407,25.2467439 41.0587242,24.4554219 C41.0234777,24.1388933 40.9001145,23.8619306 40.5652718,23.8817137 C39.8409542,23.9272146 38.0275165,26.7700386 37.9041535,27.0667843 C37.6239429,28.0381319 37.9746467,28.5109468 38.344736,29.1835705 C38.8558117,30.1331567 39.2435243,31.1618752 39.7193535,32.1510274 C39.9308331,32.5862546 40.2304292,33.0808307 40.7415049,32.6851698 C41.1820874,32.3488579 41.6050466,31.9136309 41.393567,31.1816581 C41.2702038,30.7464311 41.2173339,30.2716379 41.6050466,30.0540244 C41.9398892,29.8561939 42.3099785,30.0144583 42.6095748,30.3705532 C42.9091708,30.726648 43.1206505,31.0233937 43.1735202,31.51797 C43.2087669,32.0521122 43.103027,32.3488579 42.5919513,32.368641 C42.3890509,32.3695243 42.187296,32.4028303 41.9927592,32.4675562 C41.5874232,32.6258206 41.2525806,32.9423494 41.1997106,33.4171425 C41.1468407,33.9315017 41.5874232,34.010634 41.9046427,34.1491153 C42.221862,34.2875966 42.5390816,34.485427 42.9091708,34.485427 C43.8432058,34.485427 44.2432547,36.5844084 43.155897,36.7406945 C42.7505612,36.7011284 42.4333417,36.4637319 42.5038349,36.0087218 C42.5919513,35.2569659 42.1513688,35.0393525 41.6931631,34.8019558 C40.635765,34.3073797 39.8603399,33.4764916 39.225901,32.4082071 C38.5738389,31.3003565 37.4424229,27.5574038 36.0889536,27.9570215 C34.5571844,28.3982093 32.9825346,28.6241461 31.4011556,28.629645 C30.451842,28.6122053 29.5632516,29.1521987 29.0572567,30.0540244 C28.9515168,30.1925058 27.0834469,33.6149731 27.25968,35.4350134 C27.3087076,35.9192443 27.4215538,36.392611 27.5945226,36.8396097 C28.0351051,37.8683282 28.5109343,38.8970467 28.7752839,40.0246805 C29.0925032,41.2710123 29.4625925,41.528192 30.5904838,41.1127479 C31.7183749,40.6973041 32.828643,40.6181718 33.9741574,40.5786058 C35.2782816,40.5390397 36.4766661,40.8753514 37.4811943,41.8447208 C37.8336603,42.1810325 38.2213729,42.4382121 38.6619554,42.0623343 C38.9615515,41.8051547 39.2611475,41.5479751 39.5959903,41.8447208 C39.9837029,42.1810325 39.7722232,42.7468278 39.6136136,43.0317037 C39.5254971,43.2691002 38.6249464,44.6677616 38.0980097,43.625195 C37.9217768,43.0791829 37.4988175,42.6953918 37.0934816,42.3392969 C36.3004332,41.6468903 36.0360836,41.7655887 35.7893573,42.9327885 C35.6307476,43.4273646 35.6483711,43.8625915 36.0184604,44.2780356 C36.4590429,44.7923948 36.3709262,45.267188 35.8069807,45.643066 C35.0844254,46.1376421 34.1680137,46.0387269 33.8507944,45.3661033 C33.5511983,44.7330457 33.6921847,44.2384695 34.2913769,43.9219407 C34.4957382,43.7953841 34.6902773,43.6497975 34.8729458,43.4867138 C35.419268,42.9921376 35.3840215,42.319514 35.2077884,41.7260224 C35.0139322,41.0731819 34.4323633,41.2314463 33.9917808,41.2710123 C32.9798963,41.3532248 31.9734705,41.5051814 30.9781964,41.7260224 C30.3613809,41.8645039 29.6212022,41.9238531 29.2863596,42.734958 C28.96914,44.1197712 28.2465847,45.4056693 28.2642082,46.8893979 C28.2818314,47.5818045 28.6871672,47.8528323 29.2158664,47.6015876 C29.8273949,47.4037571 30.116417,47.6668717 30.1322779,48.3731265 C30.0970314,48.9666178 30.0952689,49.7757445 29.6035789,49.9953363 C28.7047907,50.1931668 28.6342974,49.5601094 28.7047907,48.8281366 C28.7576604,48.3533434 28.493311,48.195079 28.1760915,48.0763808 C27.9117421,47.9774656 27.6826392,47.9972485 27.5064061,48.3137773 C27.2773033,48.7094382 27.6650158,49.2237975 27.6650158,49.2237975 C27.6650158,49.2237975 27.8253879,49.6669378 27.5064061,49.8370719 C26.6428644,50.266364 25.636574,49.589784 25.6559597,48.7885705 C25.6929686,48.2247535 26.1758469,47.7994181 27.3125499,47.2257096 C27.5064061,47.0080962 28.4122439,43.2117293 28.3170779,42.2008156 Z" id="Shape" fill="#0E77CA" transform="translate(21.904748, 27.628880) rotate(-0.000000) translate(-21.904748, -27.628880) "></path>
            <g id="NGA_bk" transform="translate(22.107119, 27.874926) rotate(-0.000000) translate(-22.107119, -27.874926) translate(17.922066, 23.208259)" fill="#073069">
                <ellipse id="Oval" cx="4.11992128" cy="4.61039499" rx="4.11992128" ry="4.61039499"></ellipse>
            </g>
            <path d="M67.32295,48.145259 L60.6765625,48.145259 L49.7878,21.2544998 L49.6463874,21.2834456 L49.6463874,48.145259 L43,48.145259 L43,6 L49.6463874,6 L60.53515,32.9197054 L60.6765625,32.8907594 L60.6765625,6 L67.32295,6 L67.32295,48.145259 Z M89.4247854,29.5330328 L78.9366916,29.5330328 L78.9366916,41.7771567 L91.4988354,41.7771567 L91.4988354,48.145259 L72.2903041,48.145259 L72.2903041,6 L91.4516979,6 L91.4516979,12.3970483 L78.9366916,12.3970483 L78.9366916,23.1649304 L89.4247854,23.1649304 L89.4247854,29.5330328 Z M119.904085,6 L119.904085,33.5275697 C119.904085,38.3133189 118.78458,42.0473054 116.545538,44.7296406 C114.306496,47.4119758 111.387928,48.7531234 107.789748,48.7531234 C104.20728,48.7531234 101.300496,47.4071516 99.0693099,44.7151676 C96.8381237,42.0231835 95.7225473,38.2940216 95.7225473,33.5275697 L95.7225473,6 L102.345366,6 L102.345366,33.5275697 C102.345366,36.4028787 102.832449,38.5979223 103.806629,40.1127663 C104.780808,41.6276104 106.108502,42.385021 107.789748,42.385021 C109.502418,42.385021 110.841896,41.6324348 111.808219,40.1272393 C112.774543,38.6220441 113.257698,36.4221761 113.257698,33.5275697 L113.257698,6 L119.904085,6 Z M131.659239,31.2118962 L131.659239,48.1163132 L125.012852,48.1163132 L125.012852,6 L135.288827,6 C138.698456,6 141.381339,7.09028541 143.337555,9.27088894 C145.293771,11.4514924 146.271864,14.4907836 146.271864,18.3888536 C146.271864,20.5694572 145.859415,22.4605718 145.034505,24.0622539 C144.209594,25.6639362 143.019384,26.9375438 141.463839,27.8831152 C143.255073,28.6164156 144.543485,29.8321321 145.329114,31.5303011 C146.114743,33.2284703 146.507552,35.3511498 146.507552,37.8984035 L146.507552,40.9666709 C146.507552,42.1438109 146.617538,43.3788244 146.837514,44.6717487 C147.05749,45.964673 147.450299,46.9102302 148.015952,47.5084489 L148.015952,48.1163132 L141.133877,48.1163132 C140.583936,47.4987971 140.234337,46.4905244 140.085067,45.0914646 C139.935798,43.6924048 139.861164,42.2981902 139.861164,40.9087792 L139.861164,37.9562954 C139.861164,35.8142866 139.49978,34.154737 138.777002,32.9775972 C138.054223,31.8004573 137.017208,31.2118962 135.665927,31.2118962 L131.659239,31.2118962 Z M131.642069,25.480604 L135.224519,25.480604 C136.654364,25.480604 137.742443,24.9547584 138.488791,23.9030513 C139.235138,22.8513444 139.608307,21.3606444 139.608307,19.4309068 C139.608307,17.4625744 139.239067,15.8995103 138.500575,14.7416678 C137.762084,13.5838252 136.685789,13.0049126 135.271657,13.0049126 L131.642069,13.0049126 L131.642069,25.480604 Z M176.357001,33.5854616 C176.357001,38.5448873 175.217856,42.413953 172.939531,45.1927753 C170.661208,47.9715974 167.628726,49.3609877 163.841994,49.3609877 C160.055263,49.3609877 157.030637,47.9715974 154.768025,45.1927753 C152.505414,42.413953 151.374125,38.5448873 151.374125,33.5854616 L151.374125,21.833418 C151.374125,16.8932898 152.501486,13.0193996 154.756241,10.2116313 C157.010996,7.40386307 160.031694,6 163.818425,6 C167.605157,6 170.641567,7.40386307 172.927748,10.2116313 C175.213927,13.0193996 176.357001,16.8932898 176.357001,21.833418 L176.357001,33.5854616 Z M169.945767,21.249087 C169.945767,18.1808042 169.439044,15.8651538 168.425583,14.3020663 C167.412122,12.7389788 165.946945,11.9574468 164.030011,11.9574468 C162.097364,11.9574468 160.643972,12.7341546 159.669792,14.2875933 C158.695612,15.8410321 158.20853,18.1615068 158.20853,21.249087 L158.20853,33.0879682 C158.20853,36.2141432 158.69954,38.5587392 159.681576,40.1218267 C160.663613,41.6849142 162.120932,42.4664461 164.05358,42.4664461 C165.986227,42.4664461 167.451403,41.6849142 168.449152,40.1218267 C169.4469,38.5587392 169.945767,36.2141432 169.945767,33.0879682 L169.945767,21.249087 Z M203.351111,43.1955068 C202.376931,44.8743786 200.966749,46.3216601 199.120521,47.5373947 C197.274293,48.7531295 194.889944,49.3609877 191.967404,49.3609877 C188.259236,49.3609877 185.285675,48.034313 183.046633,45.3809238 C180.807591,42.7275346 179.688086,38.9597784 179.688086,34.0775422 L179.688086,21.2834456 C179.688086,16.4205068 180.776166,12.6575749 182.952357,9.99453691 C185.12855,7.33149899 188.007836,6 191.590304,6 C195.329899,6 198.150265,7.08546114 200.051486,9.25641598 C201.952709,11.4273708 202.87188,14.519729 202.809029,18.5335832 L202.761892,18.7072588 L196.516174,18.7072588 C196.516174,16.5073579 196.123365,14.9056997 195.337736,13.9022361 C194.552106,12.8987725 193.365824,12.3970483 191.778854,12.3970483 C190.066184,12.3970483 188.730635,13.1303376 187.772168,14.5969381 C186.8137,16.0635388 186.334473,18.2730552 186.334473,21.2255537 L186.334473,34.0775422 C186.334473,37.0879328 186.821556,39.3263949 187.795736,40.7929955 C188.769916,42.2595961 190.160459,42.9928853 191.967404,42.9928853 C193.255836,42.9928853 194.269282,42.8047388 195.007773,42.42844 C195.746264,42.0521411 196.31191,41.5552412 196.704724,40.9377251 L196.704724,32.4276246 L191.472461,32.4276246 L191.472461,26.7831703 L203.351111,26.7831703 L203.351111,43.1955068 Z M225.136528,29.5330328 L214.648435,29.5330328 L214.648435,41.7771567 L227.210577,41.7771567 L227.210577,48.145259 L208.002046,48.145259 L208.002046,6 L227.16344,6 L227.16344,12.3970483 L214.648435,12.3970483 L214.648435,23.1649304 L225.136528,23.1649304 L225.136528,29.5330328 Z M255.75724,48.145259 L249.110853,48.145259 L238.22209,21.2544998 L238.080677,21.2834456 L238.080677,48.145259 L231.43429,48.145259 L231.43429,6 L238.080677,6 L248.96944,32.9197054 L249.110853,32.8907594 L249.110853,6 L255.75724,6 L255.75724,48.145259 Z" id="NEUROGEN-NETWORK" fill="#073069"></path>
        </g>
    </g>
</svg>